# xmcd CD database file
#
# Track frame offsets:
#	150
#	15520
#	44578
#	71286
#	95679
#	108351
#	128532
#	152755
#	175188
#
# Disc length: 2562 seconds
#
# Revision: 1
# Processed by: cddbd v1.5.1PL2 Copyright (c) Steve Scherf et al.
# Submitted via: CDex 1.51
#
DISCID=6a0a0009
DTITLE=Didier Conchon - Freebop
DYEAR=2005
DGENRE=Jazz
TTITLE0=Freebop
TTITLE1=Sfeeric
TTITLE2=Wen
TTITLE3=Pushi
TTITLE4=Jeanne
TTITLE5=Where
TTITLE6=Drive In
TTITLE7=Moose the Mooche
TTITLE8=I Fall in Love too Easily
EXTD=YEAR: 2005
EXTT0=
EXTT1=
EXTT2=
EXTT3=
EXTT4=
EXTT5=
EXTT6=
EXTT7=
EXTT8=
PLAYORDER=
